<?xml version="1.0" encoding="utf-8"?>
<svg xmlns="http://www.w3.org/2000/svg" viewBox="423 541 501 482" width="100%" height="100%">
<path fill="#ffffff" opacity="1.000000" stroke="none" 
	d="
M438.091248,776.028870 
	C440.123108,770.640686 442.154968,765.252502 444.742920,758.954468 
	C445.929993,756.689331 446.560944,755.334045 447.694031,753.493530 
	C451.578949,748.675354 454.961792,744.342468 458.959351,739.805420 
	C460.383057,737.737366 461.192017,735.873413 462.068726,733.308228 
	C464.000305,729.037964 465.864105,725.468872 467.892334,722.000305 
	C468.056732,722.100830 468.442078,722.106628 468.759827,721.810913 
	C469.476044,721.086670 469.789825,720.603149 470.282471,719.151489 
	C470.698242,716.265015 471.139343,714.264771 470.958496,712.322449 
	C468.899658,690.213135 471.705536,668.772095 479.313232,647.906250 
	C480.188446,645.505798 480.003387,642.718750 480.309875,640.110901 
	C482.251740,637.254211 484.706665,634.617981 486.045776,631.502258 
	C491.521973,618.760437 500.452240,608.466980 509.224976,598.066101 
	C511.068542,595.880432 513.687744,594.348999 516.283325,591.966675 
	C530.005066,579.959045 544.170349,569.700012 560.447571,562.622314 
	C576.384155,555.692810 593.007935,551.572571 611.154053,549.894897 
	C620.627747,549.974365 629.252563,550.254944 639.382568,551.154785 
	C649.744812,553.253113 658.601868,554.732178 667.351196,556.708374 
	C666.819153,557.728210 666.394714,558.250916 665.351807,558.968872 
	C658.670898,563.236145 652.195557,566.820557 646.657043,571.511169 
	C640.575073,576.661987 634.638672,578.039734 626.419250,577.702454 
	C582.271362,575.890686 546.954041,593.862305 520.952026,629.185120 
	C506.512085,648.801147 498.229034,671.123718 498.203979,696.775513 
	C498.192047,699.721252 498.350220,701.871704 498.390259,704.871704 
	C498.432648,709.143921 498.593170,712.566711 498.517944,716.748901 
	C498.029022,719.613098 497.775879,721.717896 497.004211,724.127686 
	C496.424927,725.618103 496.364166,726.803467 496.043884,728.581848 
	C495.579468,730.009277 495.374573,730.843750 494.734619,732.180298 
	C491.721344,737.265869 489.328125,741.966125 486.525421,746.407898 
	C481.077789,755.041321 475.326416,763.482727 469.853882,772.100891 
	C467.603027,775.645508 464.745850,779.292847 468.077179,784.542847 
	C468.028625,789.473389 468.977844,792.351746 474.230835,790.974304 
	C476.669098,790.334900 479.295227,790.412048 481.997162,790.849670 
	C486.781799,802.910706 486.517090,803.741760 477.236084,806.988647 
	C470.218323,799.961548 470.218323,799.961548 461.206879,802.882874 
	C454.511902,796.235352 444.396729,792.506714 442.640747,781.168091 
	C442.346130,779.265808 439.668030,777.732605 438.091248,776.028870 
z"/>
<path fill="#ffffff" opacity="1.000000" stroke="none" 
	d="
M674.653381,1007.992126 
	C674.505432,1008.936707 674.357544,1009.881287 673.275146,1011.678711 
	C671.676941,1012.507080 671.010559,1012.512268 670.349731,1012.454041 
	C653.086060,1010.931519 636.645874,1006.470825 624.119690,994.011108 
	C611.068481,981.029236 599.941772,966.478394 598.511353,946.876831 
	C598.211243,942.764587 596.998047,938.726624 596.531372,934.617432 
	C595.157410,922.519287 584.558472,914.620544 571.219421,916.640076 
	C559.748413,918.376770 548.444153,921.200867 536.983032,923.020874 
	C523.655884,925.137329 510.478210,924.790283 498.199799,918.091797 
	C484.630615,910.689270 475.611938,895.229980 477.677429,882.260742 
	C481.297943,886.255798 483.889160,890.542908 487.549347,893.512512 
	C490.449524,895.865601 494.721191,896.469543 498.276093,898.087036 
	C505.178040,901.227173 506.719696,900.302795 508.750732,892.208069 
	C517.904297,899.044434 527.250061,896.238403 536.370300,894.985657 
	C552.136475,892.820068 567.506592,887.477051 584.385620,889.431030 
	C592.582153,893.328430 600.140198,896.954346 608.001404,901.167725 
	C620.343262,912.819458 624.148254,927.418579 625.865356,942.875000 
	C627.043518,953.479919 631.182251,962.726074 638.430847,970.505920 
	C640.523254,972.751831 643.120544,974.527283 647.095764,977.872864 
	C647.414429,963.657715 647.679504,951.830994 648.659180,939.892517 
	C659.366760,937.342529 666.275757,930.116699 674.078735,924.909302 
	C674.395325,953.218140 674.524353,980.605103 674.653381,1007.992126 
z"/>
<path fill="#c084fc" opacity="1.000000" stroke="none" 
	d="
M901.913513,888.036377 
	C901.913513,888.036377 901.619446,888.583557 901.125977,889.377075 
	C900.279358,892.047791 899.926208,893.924988 899.083252,896.145996 
	C898.422485,897.653442 898.251526,898.817078 897.877502,900.219238 
	C897.674377,900.457703 897.763245,901.077942 897.217407,901.534058 
	C890.437988,911.971252 881.881104,919.520081 870.345154,921.705750 
	C861.398315,923.400818 851.893738,923.705139 842.821411,922.793579 
	C831.335083,921.639465 820.079468,918.358521 808.643921,916.486206 
	C795.584961,914.348083 788.192383,919.017761 783.484375,931.692871 
	C783.546143,931.753784 783.649963,931.614807 783.058960,932.124146 
	C781.070923,941.083557 779.673767,949.533569 778.117554,958.786377 
	C777.075989,964.682251 778.460999,970.370483 773.559143,974.267578 
	C772.718262,974.031433 772.354858,974.061951 771.366577,973.805725 
	C762.010803,967.848145 756.620361,959.748291 753.602539,949.473877 
	C753.614502,949.015869 753.254944,948.173096 753.335205,947.363647 
	C753.137878,944.416931 752.860229,942.279541 752.867798,939.344482 
	C753.321655,935.744202 753.490417,932.941650 753.946838,929.442993 
	C754.730103,927.159546 755.231018,925.573669 755.720581,923.984375 
	C763.491760,898.754456 789.785767,884.702820 811.635376,889.413269 
	C822.025818,891.653320 832.523926,893.456421 843.035583,895.045288 
	C848.585571,895.884216 854.320190,896.484619 859.881226,896.046753 
	C869.208435,895.312317 874.170349,889.535278 874.430908,880.282654 
	C874.515015,877.295837 874.447754,874.273621 874.089172,871.311279 
	C873.032776,862.584473 875.050049,854.751770 880.773010,848.067688 
	C882.955811,845.518433 884.027283,843.150879 882.491211,839.655884 
	C886.105347,839.534485 889.882812,838.886047 892.130310,840.444336 
	C897.492188,844.162048 903.127319,844.174866 909.406616,844.419861 
	C910.932800,849.535889 910.440552,853.899170 907.099426,857.070496 
	C901.699646,862.195740 901.009583,868.331116 901.663757,875.180603 
	C902.070129,879.434998 901.851624,883.749084 901.913513,888.036377 
z"/>
<path fill="#c084fc" opacity="1.000000" stroke="none" 
	d="
M803.873535,556.374817 
	C811.214722,559.591736 818.555847,562.808594 826.976929,566.632812 
	C829.048340,568.030334 830.039856,568.820557 830.223145,569.713257 
	C826.740662,570.919312 823.994080,571.876648 821.405762,573.154541 
	C814.121094,576.751099 806.901550,580.479492 798.890625,584.109924 
	C794.916260,583.181580 791.729858,582.206238 788.495544,581.430786 
	C739.921753,569.783997 698.014099,582.002869 663.539185,617.830505 
	C643.818176,638.325256 633.454163,663.520630 631.416077,692.243652 
	C630.914185,693.009583 631.023315,693.509094 631.661621,694.774536 
	C631.677429,698.434143 631.563232,701.254761 630.747864,704.419434 
	C622.633179,705.528870 615.219666,706.294189 607.696228,707.070923 
	C606.510315,705.276611 605.450134,703.672729 604.241211,701.158203 
	C605.207520,689.426697 605.598145,678.469971 607.595642,667.814453 
	C611.228882,648.433411 619.648438,630.849426 630.603333,613.874390 
	C632.255981,611.786560 633.369568,610.026184 634.346863,608.194580 
	C634.210510,608.123413 634.082031,608.402832 634.626221,608.211792 
	C635.519531,607.354431 635.868591,606.688110 636.120728,606.023193 
	C636.023743,606.024597 636.029236,606.218384 636.515869,606.015259 
	C637.321716,605.205688 637.640930,604.599365 638.440918,603.775879 
	C639.246582,602.951355 639.571472,602.343994 640.478760,601.432617 
	C650.070496,592.840637 659.079895,584.552734 668.760376,576.078979 
	C696.348206,557.187256 726.391968,548.504456 758.925720,549.994995 
	C773.974182,550.684387 788.894897,554.161560 803.873535,556.374817 
z"/>
<path fill="#c084fc" opacity="1.000000" stroke="none" 
	d="
M830.223145,569.713257 
	C832.903076,570.451843 834.774902,571.292847 837.255798,572.272827 
	C838.544434,572.979370 839.223938,573.547058 840.724670,574.682800 
	C842.324890,575.645691 843.103943,576.040527 843.882935,576.435303 
	C845.292480,577.600464 846.701965,578.765686 848.984497,580.559753 
	C850.557129,581.535461 851.256775,581.882324 851.956421,582.229187 
	C851.956421,582.229187 851.912781,582.090454 852.167725,582.692627 
	C854.852112,585.195923 857.281677,587.097046 859.711182,588.998169 
	C862.786072,592.182434 865.860962,595.366699 869.709045,599.394287 
	C875.491577,606.905762 880.500916,613.574036 885.741821,620.906006 
	C889.987610,629.047668 894.001831,636.525513 898.029541,644.631348 
	C898.629028,646.333923 899.215149,647.408569 899.801208,648.483154 
	C899.801208,648.483154 899.805603,649.318237 900.028198,650.317383 
	C900.747009,651.971985 901.243286,652.627502 901.739563,653.282959 
	C901.383240,653.891846 901.356995,654.514648 901.894775,656.370117 
	C906.828613,674.239624 908.731628,691.164917 908.013794,708.490112 
	C907.773315,714.294128 909.261780,720.169800 909.197876,726.015625 
	C905.275452,727.321960 902.078247,728.543823 898.963501,729.948547 
	C894.660950,731.888916 890.420593,733.967346 885.654114,735.540649 
	C883.520996,732.692322 881.887329,730.290039 880.262756,727.138428 
	C880.173340,724.924805 880.074890,723.460327 880.053894,721.063171 
	C880.187622,711.655396 880.436890,703.174927 880.196594,694.708313 
	C880.110962,691.693237 878.837402,688.711914 878.092773,684.942871 
	C878.084656,682.116699 878.089722,680.062744 878.204224,677.345947 
	C877.529053,675.120728 876.744507,673.558472 876.239807,671.357544 
	C876.352783,669.821899 876.185791,668.924927 875.958740,667.475586 
	C875.293701,666.517395 874.688599,666.111450 874.091187,665.077393 
	C874.007690,663.623596 873.916626,662.797913 873.833191,661.363037 
	C873.293823,660.175598 872.746765,659.597412 872.299316,658.335938 
	C870.476685,653.706238 868.554504,649.759888 866.526001,645.080566 
	C862.652039,633.879150 855.968689,625.351624 848.496033,617.335815 
	C834.729736,602.569031 818.091553,592.043152 799.656311,584.155884 
	C806.901550,580.479492 814.121094,576.751099 821.405762,573.154541 
	C823.994080,571.876648 826.740662,570.919312 830.223145,569.713257 
z"/>
<path fill="#c084fc" opacity="1.000000" stroke="none" 
	d="
M909.197876,726.015625 
	C912.751160,729.911255 915.542358,733.809875 918.908447,738.036865 
	C919.483398,738.365295 919.490601,738.426453 919.578979,739.026428 
	C920.867615,741.179382 922.067871,742.732300 923.456299,744.851807 
	C924.333252,746.322388 925.022034,747.226440 925.710754,748.130554 
	C927.353943,750.546875 928.997131,752.963196 931.281006,756.302979 
	C932.638977,758.105347 933.356384,758.984253 934.073792,759.863159 
	C934.073792,759.863159 933.999023,759.963379 934.156494,760.503113 
	C934.808105,761.567749 935.302185,762.092651 935.796326,762.617554 
	C935.796326,762.617554 935.957764,763.412354 936.235229,763.708130 
	C937.569519,766.338440 938.626404,768.672852 940.064331,772.140869 
	C940.912109,773.895874 941.378845,774.517395 941.845581,775.138855 
	C941.808960,775.789062 941.772400,776.439209 941.949707,777.541687 
	C943.148682,792.606628 936.144958,801.873230 922.863770,807.045349 
	C919.529907,808.343811 916.335083,809.999329 912.801270,811.616577 
	C913.393188,814.912659 913.554565,817.565674 914.366821,820.001648 
	C916.687805,826.963013 916.074341,833.004089 910.121216,838.049866 
	C909.154480,838.869141 909.198669,840.881104 908.915161,843.052734 
	C903.127319,844.174866 897.492188,844.162048 892.130310,840.444336 
	C889.882812,838.886047 886.105347,839.534485 881.918091,839.338989 
	C879.283264,837.401489 877.753662,835.304626 876.254700,833.249756 
	C888.927490,822.165466 888.927490,822.165466 884.489868,810.814453 
	C884.534485,810.512573 884.124268,810.058167 884.168335,809.238037 
	C884.268066,805.694031 884.323669,802.970154 884.315918,800.202209 
	C884.252563,800.158142 884.209045,800.306274 884.682861,799.917175 
	C885.507874,798.365967 885.859131,797.203857 886.716675,795.716064 
	C888.816162,793.597412 890.409363,791.804321 892.543091,789.903320 
	C893.541504,789.260803 893.999451,788.726196 894.336975,788.282104 
	C894.216553,788.372681 894.414490,788.599976 895.150513,788.466125 
	C899.353821,787.276001 902.904358,786.432617 906.270142,785.116699 
	C912.269104,782.771484 913.207397,780.406677 910.228943,774.435425 
	C908.325256,770.618774 905.805603,767.106323 903.522827,763.482300 
	C897.744934,754.309631 891.944824,745.151001 886.153564,735.986694 
	C890.420593,733.967346 894.660950,731.888916 898.963501,729.948547 
	C902.078247,728.543823 905.275452,727.321960 909.197876,726.015625 
z"/>
<path fill="#ffffff" opacity="1.000000" stroke="none" 
	d="
M477.677429,882.260742 
	C476.997925,878.693176 477.298248,875.320557 476.668121,872.131836 
	C475.927734,868.385315 475.261017,864.089111 473.004669,861.284485 
	C467.710907,854.704102 466.391113,848.016235 470.112610,840.147644 
	C460.648743,832.602600 462.537018,823.267334 466.446716,813.001038 
	C455.419739,806.394409 442.568268,802.475830 435.870544,789.881714 
	C436.068604,785.725342 436.474915,782.185730 436.825684,777.966431 
	C436.770111,777.286743 437.470642,776.699829 437.780945,776.364380 
	C439.668030,777.732605 442.346130,779.265808 442.640747,781.168091 
	C444.396729,792.506714 454.511902,796.235352 461.206879,802.882874 
	C470.218323,799.961548 470.218323,799.961548 477.236084,806.988647 
	C486.517090,803.741760 486.781799,802.910706 482.217773,790.599731 
	C482.277405,789.664429 482.714081,789.166382 483.388763,789.354980 
	C492.078247,793.976562 496.088959,801.116699 492.989014,809.538452 
	C489.132660,820.015137 491.679077,826.790649 501.068817,831.816284 
	C501.531433,832.063843 501.667725,832.921204 502.205811,833.991760 
	C499.879517,837.160828 497.411804,840.522522 494.534393,844.442383 
	C504.449280,853.206421 505.128906,864.297913 504.066986,875.942322 
	C503.766815,879.233704 504.169434,882.589233 503.866394,886.294373 
	C504.426117,887.739746 505.369232,888.806030 506.745544,890.063110 
	C507.676239,890.693542 507.962158,891.243347 508.036438,891.903198 
	C506.719696,900.302795 505.178040,901.227173 498.276093,898.087036 
	C494.721191,896.469543 490.449524,895.865601 487.549347,893.512512 
	C483.889160,890.542908 481.297943,886.255798 477.677429,882.260742 
z"/>
<path fill="#ffffff" opacity="1.000000" stroke="none" 
	d="
M468.077179,784.542847 
	C470.881012,784.589966 473.674774,785.409668 477.567017,786.681396 
	C480.015076,787.811096 481.364594,788.488708 482.714081,789.166382 
	C482.714081,789.166382 482.277405,789.664429 482.056824,789.914429 
	C479.295227,790.412048 476.669098,790.334900 474.230835,790.974304 
	C468.977844,792.351746 468.028625,789.473389 468.077179,784.542847 
z"/>
<path fill="#ffffff" opacity="1.000000" stroke="none" 
	d="
M458.196289,737.058411 
	C459.109711,735.796204 460.023285,735.128784 461.468933,734.235413 
	C461.192017,735.873413 460.383057,737.737366 458.959320,739.805420 
	C458.295227,739.224121 458.245850,738.438660 458.196289,737.058411 
z"/>
<path fill="#ffffff" opacity="1.000000" stroke="none" 
	d="
M468.759827,721.810913 
	C468.339417,721.779236 468.236725,721.451782 468.206635,720.614624 
	C468.279266,720.105042 469.147766,720.028625 469.583313,720.046631 
	C469.789825,720.603149 469.476044,721.086670 468.759827,721.810913 
z"/>
<path fill="#ffffff" opacity="1.000000" stroke="none" 
	d="
M647.111938,848.022766 
	C647.246643,845.868103 647.381287,843.713379 647.499878,839.852783 
	C647.024597,826.102905 646.565369,814.058960 646.788818,802.121582 
	C648.645081,802.812988 649.825623,803.384399 650.991333,803.984619 
	C660.273621,808.763916 666.402100,816.958801 673.290771,824.850708 
	C673.434753,825.818848 673.688599,826.272095 674.045410,827.045654 
	C673.910217,827.499268 674.275940,828.372498 674.085815,828.857544 
	C674.115784,831.407654 674.335876,833.472778 674.403259,836.449829 
	C674.363647,840.436768 674.476746,843.511841 674.399231,847.464172 
	C674.327087,858.672180 674.445435,869.002808 674.563843,879.333496 
	C674.479187,889.168335 674.394470,899.003174 674.286011,910.334961 
	C674.390320,914.908020 674.518494,917.984131 674.646667,921.060303 
	C674.522583,921.548584 674.398438,922.036926 674.082764,923.256470 
	C666.275757,930.116699 659.366760,937.342529 648.468506,938.971680 
	C647.547058,933.868652 647.535828,929.574890 647.513733,925.281067 
	C647.381226,899.528320 647.246216,873.775513 647.111938,848.022766 
z"/>
<path fill="#c084fc" opacity="1.000000" stroke="none" 
	d="
M720.517273,916.234131 
	C711.631226,927.583618 711.615723,927.599365 721.968140,937.788086 
	C725.985779,941.742310 730.091064,945.607605 734.664307,949.893555 
	C735.279175,954.579346 735.744202,958.916748 735.367310,963.179626 
	C735.116211,966.019714 734.457703,969.527344 732.621582,971.409729 
	C720.396240,983.943665 707.804199,996.120056 695.695923,1008.053223 
	C694.284546,1007.499695 693.974854,1007.417786 693.707764,1007.262573 
	C693.429871,1007.100952 692.971191,1006.870056 692.969849,1006.666809 
	C692.763550,976.470215 692.591736,946.273376 693.419678,915.089111 
	C701.700378,911.131531 708.836121,909.388489 715.715698,915.303162 
	C716.789429,916.226196 718.890991,915.953735 720.517273,916.234131 
z"/>
<path fill="#c084fc" opacity="1.000000" stroke="none" 
	d="
M721.090332,915.923035 
	C718.890991,915.953735 716.789429,916.226196 715.715698,915.303162 
	C708.836121,909.388489 701.700378,911.131531 693.611328,914.285034 
	C692.684753,913.303284 692.567810,912.138367 692.961609,909.688843 
	C693.667358,904.781250 694.019897,901.158813 694.031616,897.535278 
	C694.104309,875.013611 694.100525,852.491821 694.850647,830.011108 
	C699.089111,831.733337 702.635986,833.342407 706.099487,835.114441 
	C710.189575,837.207031 714.019714,840.645813 718.303406,841.313171 
	C723.864807,842.179688 726.403503,844.898254 727.581421,850.275879 
	C721.909180,856.652832 716.517944,862.415161 710.159058,869.211731 
	C715.988098,874.648682 720.988281,879.312561 725.988464,883.976379 
	C729.133789,888.203674 732.279114,892.430969 735.618469,897.322021 
	C733.429993,905.734619 726.754333,910.037231 721.090332,915.923035 
z"/>
<path fill="#c084fc" opacity="1.000000" stroke="none" 
	d="
M694.122131,829.970032 
	C694.100525,852.491821 694.104309,875.013611 694.031616,897.535278 
	C694.019897,901.158813 693.667358,904.781250 693.094055,909.113647 
	C692.500977,889.844666 692.286743,869.866150 692.070923,849.887695 
	C692.027710,845.889221 691.978210,841.890930 691.812256,836.964172 
	C691.869324,833.903931 692.045715,831.771973 692.726501,829.113342 
	C693.593140,829.005737 693.890259,829.466919 694.122131,829.970032 
z"/>
<path fill="#c084fc" opacity="1.000000" stroke="none" 
	d="
M630.747803,704.419434 
	C631.849243,707.708496 632.249512,711.341675 632.940063,716.395142 
	C633.576599,719.215576 633.922913,720.615784 634.215637,722.596252 
	C634.559143,724.244385 634.956238,725.312134 635.355225,727.025024 
	C635.655945,728.471313 635.954773,729.272644 636.274048,730.720825 
	C636.839111,731.969849 637.383789,732.571838 637.665039,733.639648 
	C637.660278,734.757080 637.919006,735.408875 638.177551,736.655151 
	C638.757568,738.255310 639.337769,739.260986 639.950500,740.978027 
	C643.698669,748.599792 647.414368,755.510071 651.130005,762.420410 
	C652.995239,765.431091 654.689026,768.566772 656.769836,771.420349 
	C659.284790,774.869202 662.089417,778.111023 664.835205,781.386780 
	C675.047729,793.570618 674.899658,807.986694 673.470276,823.544739 
	C666.402100,816.958801 660.273621,808.763916 650.991333,803.984619 
	C649.825623,803.384399 648.645081,802.812988 646.263916,801.686035 
	C643.009583,798.650269 641.154724,795.964172 638.882812,793.695862 
	C628.517090,783.346863 620.932983,770.952515 615.385071,757.730530 
	C609.039001,742.606384 603.338684,726.971558 603.796692,710.032349 
	C603.894409,707.902405 603.992188,705.772400 604.239990,702.855591 
	C605.450134,703.672729 606.510315,705.276611 607.696228,707.070923 
	C615.219666,706.294189 622.633179,705.528870 630.747803,704.419434 
z"/>
<path fill="#c084fc" opacity="1.000000" stroke="none" 
	d="
M631.416077,692.243652 
	C631.627930,692.050232 631.830444,693.006104 631.681030,693.470825 
	C631.023315,693.509094 630.914185,693.009583 631.416077,692.243652 
z"/>
<path fill="#ffffff" opacity="1.000000" stroke="none" 
	d="
M503.866394,886.294373 
	C504.884552,886.849182 505.519318,887.783020 506.233215,889.294617 
	C505.369232,888.806030 504.426117,887.739746 503.866394,886.294373 
z"/>
<path fill="#c084fc" opacity="1.000000" stroke="none" 
	d="
M769.526123,735.975464 
	C765.620850,751.821899 758.103271,765.989075 749.217163,779.506714 
	C746.864502,783.085510 744.539001,786.718018 741.823364,790.014709 
	C736.464844,796.519592 734.606506,804.036987 734.669861,812.218567 
	C734.728882,819.844055 734.544983,827.487122 735.015625,835.088501 
	C735.374207,840.879517 733.893005,845.505310 728.527832,849.323059 
	C726.403503,844.898254 723.864807,842.179688 718.303406,841.313171 
	C714.019714,840.645813 710.189575,837.207031 706.099487,835.114441 
	C702.635986,833.342407 699.089111,831.733337 694.850647,830.011108 
	C693.890259,829.466919 693.593140,829.005737 692.909424,828.330688 
	C692.945068,811.980286 698.956421,797.973633 708.638916,785.426758 
	C712.451294,780.486694 716.729675,775.906311 721.574158,770.118896 
	C725.094177,764.791931 727.835815,760.508301 730.577515,756.224670 
	C734.782837,747.217712 738.988098,738.210754 744.463257,728.663940 
	C754.319763,728.754211 763.189514,728.526672 769.526123,735.975464 
z"/>
<path fill="#ffffff" opacity="1.000000" stroke="none" 
	d="
M769.684509,735.201416 
	C763.189514,728.526672 754.319763,728.754211 744.888184,728.078003 
	C744.644958,724.516052 745.246765,721.000183 745.918579,716.248840 
	C745.920715,714.680725 745.852905,714.348206 745.785156,714.015625 
	C746.111328,712.466553 746.437561,710.917419 747.650391,708.256470 
	C750.672791,701.882019 751.441589,696.707886 747.546509,691.835510 
	C747.546509,691.835510 746.907288,691.956360 746.583130,691.928955 
	C746.154541,688.497681 746.049988,685.093872 746.730652,680.724731 
	C751.450378,677.069702 755.608765,674.648254 759.252686,671.609741 
	C762.490906,668.909485 765.186829,665.578003 770.401489,666.632446 
	C772.033386,673.516357 773.241455,679.769348 774.354980,686.861267 
	C774.609253,690.471558 774.957947,693.242920 775.070068,696.819580 
	C774.895569,700.412964 774.957642,703.201111 774.754517,706.761597 
	C774.461914,709.700928 774.434326,711.867981 774.233398,714.508606 
	C774.125732,715.311890 774.191589,715.641602 774.067505,716.463135 
	C773.946350,717.299683 774.015198,717.644409 774.084106,717.989136 
	C772.670349,723.468506 771.256592,728.947876 769.684509,735.201416 
z"/>
<path fill="#ffffff" opacity="1.000000" stroke="none" 
	d="
M747.364502,692.717651 
	C751.441589,696.707886 750.672791,701.882019 748.013184,707.550171 
	C747.387024,703.170410 747.284790,698.385132 747.364502,692.717651 
z"/>
<path fill="#ffffff" opacity="1.000000" stroke="none" 
	d="
M734.949585,598.523926 
	C743.416809,610.474548 751.992188,621.590088 758.561707,633.786072 
	C763.685303,643.297729 766.315308,654.152649 770.015503,665.206055 
	C765.186829,665.578003 762.490906,668.909485 759.252686,671.609741 
	C755.608765,674.648254 751.450378,677.069702 746.827759,679.876099 
	C745.017578,675.868286 743.879456,671.748169 742.776245,667.618713 
	C737.333862,647.246338 726.562744,629.987244 712.020569,614.927429 
	C709.789856,612.617249 707.566650,610.299866 704.346924,606.953796 
	C715.046326,603.594116 723.443359,597.310120 734.949585,598.523926 
z"/>
</svg>

