<?xml version="1.0" encoding="utf-8"?>
<svg version="1.1" xmlns="http://www.w3.org/2000/svg" viewBox="334 489 2090 677" width="100%" height="100%">
<defs>
<linearGradient id="meGradient" x1="0%" y1="0%" x2="100%" y2="0%">
<stop offset="0%" stop-color="#ff4db8"/>
<stop offset="100%" stop-color="#9333ea"/>
</linearGradient>
</defs>
<path fill="#ffffff" opacity="1.000000" stroke="none" 
	d="
M438.091248,776.028870 
	C440.123108,770.640686 442.154968,765.252502 444.742920,758.954468 
	C445.929993,756.689331 446.560944,755.334045 447.694031,753.493530 
	C451.578949,748.675354 454.961792,744.342468 458.959351,739.805420 
	C460.383057,737.737366 461.192017,735.873413 462.068726,733.308228 
	C464.000305,729.037964 465.864105,725.468872 467.892334,722.000305 
	C468.056732,722.100830 468.442078,722.106628 468.759827,721.810913 
	C469.476044,721.086670 469.789825,720.603149 470.282471,719.151489 
	C470.698242,716.265015 471.139343,714.264771 470.958496,712.322449 
	C468.899658,690.213135 471.705536,668.772095 479.313232,647.906250 
	C480.188446,645.505798 480.003387,642.718750 480.309875,640.110901 
	C482.251740,637.254211 484.706665,634.617981 486.045776,631.502258 
	C491.521973,618.760437 500.452240,608.466980 509.224976,598.066101 
	C511.068542,595.880432 513.687744,594.348999 516.283325,591.966675 
	C530.005066,579.959045 544.170349,569.700012 560.447571,562.622314 
	C576.384155,555.692810 593.007935,551.572571 611.154053,549.894897 
	C620.627747,549.974365 629.252563,550.254944 639.382568,551.154785 
	C649.744812,553.253113 658.601868,554.732178 667.351196,556.708374 
	C666.819153,557.728210 666.394714,558.250916 665.351807,558.968872 
	C658.670898,563.236145 652.195557,566.820557 646.657043,571.511169 
	C640.575073,576.661987 634.638672,578.039734 626.419250,577.702454 
	C582.271362,575.890686 546.954041,593.862305 520.952026,629.185120 
	C506.512085,648.801147 498.229034,671.123718 498.203979,696.775513 
	C498.192047,699.721252 498.350220,701.871704 498.390259,704.871704 
	C498.432648,709.143921 498.593170,712.566711 498.517944,716.748901 
	C498.029022,719.613098 497.775879,721.717896 497.004211,724.127686 
	C496.424927,725.618103 496.364166,726.803467 496.043884,728.581848 
	C495.579468,730.009277 495.374573,730.843750 494.734619,732.180298 
	C491.721344,737.265869 489.328125,741.966125 486.525421,746.407898 
	C481.077789,755.041321 475.326416,763.482727 469.853882,772.100891 
	C467.603027,775.645508 464.745850,779.292847 468.077179,784.542847 
	C468.028625,789.473389 468.977844,792.351746 474.230835,790.974304 
	C476.669098,790.334900 479.295227,790.412048 481.997162,790.849670 
	C486.781799,802.910706 486.517090,803.741760 477.236084,806.988647 
	C470.218323,799.961548 470.218323,799.961548 461.206879,802.882874 
	C454.511902,796.235352 444.396729,792.506714 442.640747,781.168091 
	C442.346130,779.265808 439.668030,777.732605 438.091248,776.028870 
z"/>
<path fill="#ffffff" opacity="1.000000" stroke="none" 
	d="
M1156.705322,672.677612 
	C1174.174438,680.297852 1190.298096,689.762390 1202.472534,706.548828 
	C1204.354248,709.145203 1205.555908,710.764771 1207.016602,713.049683 
	C1209.417969,717.358704 1211.560547,721.002319 1213.703125,724.645874 
	C1218.589111,740.085205 1223.707153,755.578186 1222.384277,772.040344 
	C1221.516357,782.839844 1219.411621,793.539917 1217.083984,805.468689 
	C1215.954956,808.205017 1215.821655,809.849548 1215.212891,811.293701 
	C1212.291992,818.223450 1209.242554,825.099121 1206.238770,831.993958 
	C1206.238770,831.993958 1205.980103,832.853882 1205.242432,833.412109 
	C1203.686523,834.410889 1202.576172,834.643921 1202.093140,835.323059 
	C1193.618530,847.237305 1182.639648,856.093750 1169.597290,862.593323 
	C1153.214355,870.757629 1135.943726,874.803833 1117.632324,874.715393 
	C1093.991211,874.601135 1070.348755,874.743347 1046.708374,874.565857 
	C1043.941284,874.545105 1041.184204,873.198853 1038.422363,872.467041 
	C1038.753662,869.534424 1039.374512,866.601624 1039.373047,863.669128 
	C1039.347900,814.371887 1039.245361,765.074585 1039.170776,714.048706 
	C1039.005493,708.881897 1038.829346,705.443604 1038.915894,701.146729 
	C1039.015869,695.523254 1038.852905,690.758362 1038.952148,685.348022 
	C1039.060791,683.801331 1038.906982,682.900024 1038.753418,681.998718 
	C1038.918213,678.011902 1039.083130,674.025146 1039.651611,668.740967 
	C1043.369507,666.990295 1046.683838,666.536926 1049.998047,666.083557 
	C1052.788818,666.256409 1055.579712,666.429199 1060.097168,666.610962 
	C1075.882935,666.446899 1089.941895,666.273865 1104.000854,666.100769 
	C1116.787720,667.148865 1129.574585,668.196960 1143.843140,669.532471 
	C1149.118286,670.772400 1152.911865,671.724976 1156.705322,672.677612 
M1074.541504,713.875122 
	C1074.541504,756.977600 1074.541504,800.080078 1074.541504,843.610718 
	C1089.854492,843.610718 1103.834839,844.141541 1117.761719,843.504517 
	C1150.623169,842.001343 1174.175659,824.447205 1182.912964,795.488464 
	C1186.415649,783.879272 1187.219604,771.998047 1185.682129,758.451843 
	C1184.625732,754.396606 1183.758545,750.280823 1182.482666,746.295837 
	C1172.650513,715.588623 1149.954834,698.730530 1120.360596,697.976379 
	C1108.090576,697.663635 1095.805298,697.906860 1083.527344,697.964844 
	C1080.652222,697.978394 1077.778442,698.266418 1074.985840,698.423584 
	C1074.985840,703.474426 1074.985840,707.764099 1074.541504,713.875122 
z"/>
<path fill="#ffffff" opacity="1.000000" stroke="none" 
	d="
M674.653381,1007.992126 
	C674.505432,1008.936707 674.357544,1009.881287 673.275146,1011.678711 
	C671.676941,1012.507080 671.010559,1012.512268 670.349731,1012.454041 
	C653.086060,1010.931519 636.645874,1006.470825 624.119690,994.011108 
	C611.068481,981.029236 599.941772,966.478394 598.511353,946.876831 
	C598.211243,942.764587 596.998047,938.726624 596.531372,934.617432 
	C595.157410,922.519287 584.558472,914.620544 571.219421,916.640076 
	C559.748413,918.376770 548.444153,921.200867 536.983032,923.020874 
	C523.655884,925.137329 510.478210,924.790283 498.199799,918.091797 
	C484.630615,910.689270 475.611938,895.229980 477.677429,882.260742 
	C481.297943,886.255798 483.889160,890.542908 487.549347,893.512512 
	C490.449524,895.865601 494.721191,896.469543 498.276093,898.087036 
	C505.178040,901.227173 506.719696,900.302795 508.750732,892.208069 
	C517.904297,899.044434 527.250061,896.238403 536.370300,894.985657 
	C552.136475,892.820068 567.506592,887.477051 584.385620,889.431030 
	C592.582153,893.328430 600.140198,896.954346 608.001404,901.167725 
	C620.343262,912.819458 624.148254,927.418579 625.865356,942.875000 
	C627.043518,953.479919 631.182251,962.726074 638.430847,970.505920 
	C640.523254,972.751831 643.120544,974.527283 647.095764,977.872864 
	C647.414429,963.657715 647.679504,951.830994 648.659180,939.892517 
	C659.366760,937.342529 666.275757,930.116699 674.078735,924.909302 
	C674.395325,953.218140 674.524353,980.605103 674.653381,1007.992126 
z"/>
<path fill="#e91e8c" opacity="1.000000" stroke="none" 
	d="
M901.913513,888.036377 
	C901.913513,888.036377 901.619446,888.583557 901.125977,889.377075 
	C900.279358,892.047791 899.926208,893.924988 899.083252,896.145996 
	C898.422485,897.653442 898.251526,898.817078 897.877502,900.219238 
	C897.674377,900.457703 897.763245,901.077942 897.217407,901.534058 
	C890.437988,911.971252 881.881104,919.520081 870.345154,921.705750 
	C861.398315,923.400818 851.893738,923.705139 842.821411,922.793579 
	C831.335083,921.639465 820.079468,918.358521 808.643921,916.486206 
	C795.584961,914.348083 788.192383,919.017761 783.484375,931.692871 
	C783.546143,931.753784 783.649963,931.614807 783.058960,932.124146 
	C781.070923,941.083557 779.673767,949.533569 778.117554,958.786377 
	C777.075989,964.682251 778.460999,970.370483 773.559143,974.267578 
	C772.718262,974.031433 772.354858,974.061951 771.366577,973.805725 
	C762.010803,967.848145 756.620361,959.748291 753.602539,949.473877 
	C753.614502,949.015869 753.254944,948.173096 753.335205,947.363647 
	C753.137878,944.416931 752.860229,942.279541 752.867798,939.344482 
	C753.321655,935.744202 753.490417,932.941650 753.946838,929.442993 
	C754.730103,927.159546 755.231018,925.573669 755.720581,923.984375 
	C763.491760,898.754456 789.785767,884.702820 811.635376,889.413269 
	C822.025818,891.653320 832.523926,893.456421 843.035583,895.045288 
	C848.585571,895.884216 854.320190,896.484619 859.881226,896.046753 
	C869.208435,895.312317 874.170349,889.535278 874.430908,880.282654 
	C874.515015,877.295837 874.447754,874.273621 874.089172,871.311279 
	C873.032776,862.584473 875.050049,854.751770 880.773010,848.067688 
	C882.955811,845.518433 884.027283,843.150879 882.491211,839.655884 
	C886.105347,839.534485 889.882812,838.886047 892.130310,840.444336 
	C897.492188,844.162048 903.127319,844.174866 909.406616,844.419861 
	C910.932800,849.535889 910.440552,853.899170 907.099426,857.070496 
	C901.699646,862.195740 901.009583,868.331116 901.663757,875.180603 
	C902.070129,879.434998 901.851624,883.749084 901.913513,888.036377 
z"/>
<path fill="#e91e8c" opacity="1.000000" stroke="none" 
	d="
M803.873535,556.374817 
	C811.214722,559.591736 818.555847,562.808594 826.976929,566.632812 
	C829.048340,568.030334 830.039856,568.820557 830.223145,569.713257 
	C826.740662,570.919312 823.994080,571.876648 821.405762,573.154541 
	C814.121094,576.751099 806.901550,580.479492 798.890625,584.109924 
	C794.916260,583.181580 791.729858,582.206238 788.495544,581.430786 
	C739.921753,569.783997 698.014099,582.002869 663.539185,617.830505 
	C643.818176,638.325256 633.454163,663.520630 631.416077,692.243652 
	C630.914185,693.009583 631.023315,693.509094 631.661621,694.774536 
	C631.677429,698.434143 631.563232,701.254761 630.747864,704.419434 
	C622.633179,705.528870 615.219666,706.294189 607.696228,707.070923 
	C606.510315,705.276611 605.450134,703.672729 604.241211,701.158203 
	C605.207520,689.426697 605.598145,678.469971 607.595642,667.814453 
	C611.228882,648.433411 619.648438,630.849426 630.603333,613.874390 
	C632.255981,611.786560 633.369568,610.026184 634.346863,608.194580 
	C634.210510,608.123413 634.082031,608.402832 634.626221,608.211792 
	C635.519531,607.354431 635.868591,606.688110 636.120728,606.023193 
	C636.023743,606.024597 636.029236,606.218384 636.515869,606.015259 
	C637.321716,605.205688 637.640930,604.599365 638.440918,603.775879 
	C639.246582,602.951355 639.571472,602.343994 640.478760,601.432617 
	C650.070496,592.840637 659.079895,584.552734 668.760376,576.078979 
	C696.348206,557.187256 726.391968,548.504456 758.925720,549.994995 
	C773.974182,550.684387 788.894897,554.161560 803.873535,556.374817 
z"/>
<path fill="#e91e8c" opacity="1.000000" stroke="none" 
	d="
M830.223145,569.713257 
	C832.903076,570.451843 834.774902,571.292847 837.255798,572.272827 
	C838.544434,572.979370 839.223938,573.547058 840.724670,574.682800 
	C842.324890,575.645691 843.103943,576.040527 843.882935,576.435303 
	C845.292480,577.600464 846.701965,578.765686 848.984497,580.559753 
	C850.557129,581.535461 851.256775,581.882324 851.956421,582.229187 
	C851.956421,582.229187 851.912781,582.090454 852.167725,582.692627 
	C854.852112,585.195923 857.281677,587.097046 859.711182,588.998169 
	C862.786072,592.182434 865.860962,595.366699 869.709045,599.394287 
	C875.491577,606.905762 880.500916,613.574036 885.741821,620.906006 
	C889.987610,629.047668 894.001831,636.525513 898.029541,644.631348 
	C898.629028,646.333923 899.215149,647.408569 899.801208,648.483154 
	C899.801208,648.483154 899.805603,649.318237 900.028198,650.317383 
	C900.747009,651.971985 901.243286,652.627502 901.739563,653.282959 
	C901.383240,653.891846 901.356995,654.514648 901.894775,656.370117 
	C906.828613,674.239624 908.731628,691.164917 908.013794,708.490112 
	C907.773315,714.294128 909.261780,720.169800 909.197876,726.015625 
	C905.275452,727.321960 902.078247,728.543823 898.963501,729.948547 
	C894.660950,731.888916 890.420593,733.967346 885.654114,735.540649 
	C883.520996,732.692322 881.887329,730.290039 880.262756,727.138428 
	C880.173340,724.924805 880.074890,723.460327 880.053894,721.063171 
	C880.187622,711.655396 880.436890,703.174927 880.196594,694.708313 
	C880.110962,691.693237 878.837402,688.711914 878.092773,684.942871 
	C878.084656,682.116699 878.089722,680.062744 878.204224,677.345947 
	C877.529053,675.120728 876.744507,673.558472 876.239807,671.357544 
	C876.352783,669.821899 876.185791,668.924927 875.958740,667.475586 
	C875.293701,666.517395 874.688599,666.111450 874.091187,665.077393 
	C874.007690,663.623596 873.916626,662.797913 873.833191,661.363037 
	C873.293823,660.175598 872.746765,659.597412 872.299316,658.335938 
	C870.476685,653.706238 868.554504,649.759888 866.526001,645.080566 
	C862.652039,633.879150 855.968689,625.351624 848.496033,617.335815 
	C834.729736,602.569031 818.091553,592.043152 799.656311,584.155884 
	C806.901550,580.479492 814.121094,576.751099 821.405762,573.154541 
	C823.994080,571.876648 826.740662,570.919312 830.223145,569.713257 
z"/>
<path fill="#e91e8c" opacity="1.000000" stroke="none" 
	d="
M909.197876,726.015625 
	C912.751160,729.911255 915.542358,733.809875 918.908447,738.036865 
	C919.483398,738.365295 919.490601,738.426453 919.578979,739.026428 
	C920.867615,741.179382 922.067871,742.732300 923.456299,744.851807 
	C924.333252,746.322388 925.022034,747.226440 925.710754,748.130554 
	C927.353943,750.546875 928.997131,752.963196 931.281006,756.302979 
	C932.638977,758.105347 933.356384,758.984253 934.073792,759.863159 
	C934.073792,759.863159 933.999023,759.963379 934.156494,760.503113 
	C934.808105,761.567749 935.302185,762.092651 935.796326,762.617554 
	C935.796326,762.617554 935.957764,763.412354 936.235229,763.708130 
	C937.569519,766.338440 938.626404,768.672852 940.064331,772.140869 
	C940.912109,773.895874 941.378845,774.517395 941.845581,775.138855 
	C941.808960,775.789062 941.772400,776.439209 941.949707,777.541687 
	C943.148682,792.606628 936.144958,801.873230 922.863770,807.045349 
	C919.529907,808.343811 916.335083,809.999329 912.801270,811.616577 
	C913.393188,814.912659 913.554565,817.565674 914.366821,820.001648 
	C916.687805,826.963013 916.074341,833.004089 910.121216,838.049866 
	C909.154480,838.869141 909.198669,840.881104 908.915161,843.052734 
	C903.127319,844.174866 897.492188,844.162048 892.130310,840.444336 
	C889.882812,838.886047 886.105347,839.534485 881.918091,839.338989 
	C879.283264,837.401489 877.753662,835.304626 876.254700,833.249756 
	C888.927490,822.165466 888.927490,822.165466 884.489868,810.814453 
	C884.534485,810.512573 884.124268,810.058167 884.168335,809.238037 
	C884.268066,805.694031 884.323669,802.970154 884.315918,800.202209 
	C884.252563,800.158142 884.209045,800.306274 884.682861,799.917175 
	C885.507874,798.365967 885.859131,797.203857 886.716675,795.716064 
	C888.816162,793.597412 890.409363,791.804321 892.543091,789.903320 
	C893.541504,789.260803 893.999451,788.726196 894.336975,788.282104 
	C894.216553,788.372681 894.414490,788.599976 895.150513,788.466125 
	C899.353821,787.276001 902.904358,786.432617 906.270142,785.116699 
	C912.269104,782.771484 913.207397,780.406677 910.228943,774.435425 
	C908.325256,770.618774 905.805603,767.106323 903.522827,763.482300 
	C897.744934,754.309631 891.944824,745.151001 886.153564,735.986694 
	C890.420593,733.967346 894.660950,731.888916 898.963501,729.948547 
	C902.078247,728.543823 905.275452,727.321960 909.197876,726.015625 
z"/>
<path fill="#ffffff" opacity="1.000000" stroke="none" 
	d="
M477.677429,882.260742 
	C476.997925,878.693176 477.298248,875.320557 476.668121,872.131836 
	C475.927734,868.385315 475.261017,864.089111 473.004669,861.284485 
	C467.710907,854.704102 466.391113,848.016235 470.112610,840.147644 
	C460.648743,832.602600 462.537018,823.267334 466.446716,813.001038 
	C455.419739,806.394409 442.568268,802.475830 435.870544,789.881714 
	C436.068604,785.725342 436.474915,782.185730 436.825684,777.966431 
	C436.770111,777.286743 437.470642,776.699829 437.780945,776.364380 
	C439.668030,777.732605 442.346130,779.265808 442.640747,781.168091 
	C444.396729,792.506714 454.511902,796.235352 461.206879,802.882874 
	C470.218323,799.961548 470.218323,799.961548 477.236084,806.988647 
	C486.517090,803.741760 486.781799,802.910706 482.217773,790.599731 
	C482.277405,789.664429 482.714081,789.166382 483.388763,789.354980 
	C492.078247,793.976562 496.088959,801.116699 492.989014,809.538452 
	C489.132660,820.015137 491.679077,826.790649 501.068817,831.816284 
	C501.531433,832.063843 501.667725,832.921204 502.205811,833.991760 
	C499.879517,837.160828 497.411804,840.522522 494.534393,844.442383 
	C504.449280,853.206421 505.128906,864.297913 504.066986,875.942322 
	C503.766815,879.233704 504.169434,882.589233 503.866394,886.294373 
	C504.426117,887.739746 505.369232,888.806030 506.745544,890.063110 
	C507.676239,890.693542 507.962158,891.243347 508.036438,891.903198 
	C506.719696,900.302795 505.178040,901.227173 498.276093,898.087036 
	C494.721191,896.469543 490.449524,895.865601 487.549347,893.512512 
	C483.889160,890.542908 481.297943,886.255798 477.677429,882.260742 
z"/>
<path fill="#ffffff" opacity="1.000000" stroke="none" 
	d="
M468.077179,784.542847 
	C470.881012,784.589966 473.674774,785.409668 477.567017,786.681396 
	C480.015076,787.811096 481.364594,788.488708 482.714081,789.166382 
	C482.714081,789.166382 482.277405,789.664429 482.056824,789.914429 
	C479.295227,790.412048 476.669098,790.334900 474.230835,790.974304 
	C468.977844,792.351746 468.028625,789.473389 468.077179,784.542847 
z"/>
<path fill="#ffffff" opacity="1.000000" stroke="none" 
	d="
M458.196289,737.058411 
	C459.109711,735.796204 460.023285,735.128784 461.468933,734.235413 
	C461.192017,735.873413 460.383057,737.737366 458.959320,739.805420 
	C458.295227,739.224121 458.245850,738.438660 458.196289,737.058411 
z"/>
<path fill="#ffffff" opacity="1.000000" stroke="none" 
	d="
M468.759827,721.810913 
	C468.339417,721.779236 468.236725,721.451782 468.206635,720.614624 
	C468.279266,720.105042 469.147766,720.028625 469.583313,720.046631 
	C469.789825,720.603149 469.476044,721.086670 468.759827,721.810913 
z"/>
<path fill="#ffffff" opacity="1.000000" stroke="none" 
	d="
M647.111938,848.022766 
	C647.246643,845.868103 647.381287,843.713379 647.499878,839.852783 
	C647.024597,826.102905 646.565369,814.058960 646.788818,802.121582 
	C648.645081,802.812988 649.825623,803.384399 650.991333,803.984619 
	C660.273621,808.763916 666.402100,816.958801 673.290771,824.850708 
	C673.434753,825.818848 673.688599,826.272095 674.045410,827.045654 
	C673.910217,827.499268 674.275940,828.372498 674.085815,828.857544 
	C674.115784,831.407654 674.335876,833.472778 674.403259,836.449829 
	C674.363647,840.436768 674.476746,843.511841 674.399231,847.464172 
	C674.327087,858.672180 674.445435,869.002808 674.563843,879.333496 
	C674.479187,889.168335 674.394470,899.003174 674.286011,910.334961 
	C674.390320,914.908020 674.518494,917.984131 674.646667,921.060303 
	C674.522583,921.548584 674.398438,922.036926 674.082764,923.256470 
	C666.275757,930.116699 659.366760,937.342529 648.468506,938.971680 
	C647.547058,933.868652 647.535828,929.574890 647.513733,925.281067 
	C647.381226,899.528320 647.246216,873.775513 647.111938,848.022766 
z"/>
<path fill="#e91e8c" opacity="1.000000" stroke="none" 
	d="
M720.517273,916.234131 
	C711.631226,927.583618 711.615723,927.599365 721.968140,937.788086 
	C725.985779,941.742310 730.091064,945.607605 734.664307,949.893555 
	C735.279175,954.579346 735.744202,958.916748 735.367310,963.179626 
	C735.116211,966.019714 734.457703,969.527344 732.621582,971.409729 
	C720.396240,983.943665 707.804199,996.120056 695.695923,1008.053223 
	C694.284546,1007.499695 693.974854,1007.417786 693.707764,1007.262573 
	C693.429871,1007.100952 692.971191,1006.870056 692.969849,1006.666809 
	C692.763550,976.470215 692.591736,946.273376 693.419678,915.089111 
	C701.700378,911.131531 708.836121,909.388489 715.715698,915.303162 
	C716.789429,916.226196 718.890991,915.953735 720.517273,916.234131 
z"/>
<path fill="#e91e8c" opacity="1.000000" stroke="none" 
	d="
M721.090332,915.923035 
	C718.890991,915.953735 716.789429,916.226196 715.715698,915.303162 
	C708.836121,909.388489 701.700378,911.131531 693.611328,914.285034 
	C692.684753,913.303284 692.567810,912.138367 692.961609,909.688843 
	C693.667358,904.781250 694.019897,901.158813 694.031616,897.535278 
	C694.104309,875.013611 694.100525,852.491821 694.850647,830.011108 
	C699.089111,831.733337 702.635986,833.342407 706.099487,835.114441 
	C710.189575,837.207031 714.019714,840.645813 718.303406,841.313171 
	C723.864807,842.179688 726.403503,844.898254 727.581421,850.275879 
	C721.909180,856.652832 716.517944,862.415161 710.159058,869.211731 
	C715.988098,874.648682 720.988281,879.312561 725.988464,883.976379 
	C729.133789,888.203674 732.279114,892.430969 735.618469,897.322021 
	C733.429993,905.734619 726.754333,910.037231 721.090332,915.923035 
z"/>
<path fill="#e91e8c" opacity="1.000000" stroke="none" 
	d="
M694.122131,829.970032 
	C694.100525,852.491821 694.104309,875.013611 694.031616,897.535278 
	C694.019897,901.158813 693.667358,904.781250 693.094055,909.113647 
	C692.500977,889.844666 692.286743,869.866150 692.070923,849.887695 
	C692.027710,845.889221 691.978210,841.890930 691.812256,836.964172 
	C691.869324,833.903931 692.045715,831.771973 692.726501,829.113342 
	C693.593140,829.005737 693.890259,829.466919 694.122131,829.970032 
z"/>
<path fill="#e91e8c" opacity="1.000000" stroke="none" 
	d="
M630.747803,704.419434 
	C631.849243,707.708496 632.249512,711.341675 632.940063,716.395142 
	C633.576599,719.215576 633.922913,720.615784 634.215637,722.596252 
	C634.559143,724.244385 634.956238,725.312134 635.355225,727.025024 
	C635.655945,728.471313 635.954773,729.272644 636.274048,730.720825 
	C636.839111,731.969849 637.383789,732.571838 637.665039,733.639648 
	C637.660278,734.757080 637.919006,735.408875 638.177551,736.655151 
	C638.757568,738.255310 639.337769,739.260986 639.950500,740.978027 
	C643.698669,748.599792 647.414368,755.510071 651.130005,762.420410 
	C652.995239,765.431091 654.689026,768.566772 656.769836,771.420349 
	C659.284790,774.869202 662.089417,778.111023 664.835205,781.386780 
	C675.047729,793.570618 674.899658,807.986694 673.470276,823.544739 
	C666.402100,816.958801 660.273621,808.763916 650.991333,803.984619 
	C649.825623,803.384399 648.645081,802.812988 646.263916,801.686035 
	C643.009583,798.650269 641.154724,795.964172 638.882812,793.695862 
	C628.517090,783.346863 620.932983,770.952515 615.385071,757.730530 
	C609.039001,742.606384 603.338684,726.971558 603.796692,710.032349 
	C603.894409,707.902405 603.992188,705.772400 604.239990,702.855591 
	C605.450134,703.672729 606.510315,705.276611 607.696228,707.070923 
	C615.219666,706.294189 622.633179,705.528870 630.747803,704.419434 
z"/>
<path fill="#e91e8c" opacity="1.000000" stroke="none" 
	d="
M631.416077,692.243652 
	C631.627930,692.050232 631.830444,693.006104 631.681030,693.470825 
	C631.023315,693.509094 630.914185,693.009583 631.416077,692.243652 
z"/>
<path fill="#ffffff" opacity="1.000000" stroke="none" 
	d="
M503.866394,886.294373 
	C504.884552,886.849182 505.519318,887.783020 506.233215,889.294617 
	C505.369232,888.806030 504.426117,887.739746 503.866394,886.294373 
z"/>
<path fill="#e91e8c" opacity="1.000000" stroke="none" 
	d="
M769.526123,735.975464 
	C765.620850,751.821899 758.103271,765.989075 749.217163,779.506714 
	C746.864502,783.085510 744.539001,786.718018 741.823364,790.014709 
	C736.464844,796.519592 734.606506,804.036987 734.669861,812.218567 
	C734.728882,819.844055 734.544983,827.487122 735.015625,835.088501 
	C735.374207,840.879517 733.893005,845.505310 728.527832,849.323059 
	C726.403503,844.898254 723.864807,842.179688 718.303406,841.313171 
	C714.019714,840.645813 710.189575,837.207031 706.099487,835.114441 
	C702.635986,833.342407 699.089111,831.733337 694.850647,830.011108 
	C693.890259,829.466919 693.593140,829.005737 692.909424,828.330688 
	C692.945068,811.980286 698.956421,797.973633 708.638916,785.426758 
	C712.451294,780.486694 716.729675,775.906311 721.574158,770.118896 
	C725.094177,764.791931 727.835815,760.508301 730.577515,756.224670 
	C734.782837,747.217712 738.988098,738.210754 744.463257,728.663940 
	C754.319763,728.754211 763.189514,728.526672 769.526123,735.975464 
z"/>
<path fill="#ffffff" opacity="1.000000" stroke="none" 
	d="
M769.684509,735.201416 
	C763.189514,728.526672 754.319763,728.754211 744.888184,728.078003 
	C744.644958,724.516052 745.246765,721.000183 745.918579,716.248840 
	C745.920715,714.680725 745.852905,714.348206 745.785156,714.015625 
	C746.111328,712.466553 746.437561,710.917419 747.650391,708.256470 
	C750.672791,701.882019 751.441589,696.707886 747.546509,691.835510 
	C747.546509,691.835510 746.907288,691.956360 746.583130,691.928955 
	C746.154541,688.497681 746.049988,685.093872 746.730652,680.724731 
	C751.450378,677.069702 755.608765,674.648254 759.252686,671.609741 
	C762.490906,668.909485 765.186829,665.578003 770.401489,666.632446 
	C772.033386,673.516357 773.241455,679.769348 774.354980,686.861267 
	C774.609253,690.471558 774.957947,693.242920 775.070068,696.819580 
	C774.895569,700.412964 774.957642,703.201111 774.754517,706.761597 
	C774.461914,709.700928 774.434326,711.867981 774.233398,714.508606 
	C774.125732,715.311890 774.191589,715.641602 774.067505,716.463135 
	C773.946350,717.299683 774.015198,717.644409 774.084106,717.989136 
	C772.670349,723.468506 771.256592,728.947876 769.684509,735.201416 
z"/>
<path fill="#ffffff" opacity="1.000000" stroke="none" 
	d="
M747.364502,692.717651 
	C751.441589,696.707886 750.672791,701.882019 748.013184,707.550171 
	C747.387024,703.170410 747.284790,698.385132 747.364502,692.717651 
z"/>
<path fill="#ffffff" opacity="1.000000" stroke="none" 
	d="
M734.949585,598.523926 
	C743.416809,610.474548 751.992188,621.590088 758.561707,633.786072 
	C763.685303,643.297729 766.315308,654.152649 770.015503,665.206055 
	C765.186829,665.578003 762.490906,668.909485 759.252686,671.609741 
	C755.608765,674.648254 751.450378,677.069702 746.827759,679.876099 
	C745.017578,675.868286 743.879456,671.748169 742.776245,667.618713 
	C737.333862,647.246338 726.562744,629.987244 712.020569,614.927429 
	C709.789856,612.617249 707.566650,610.299866 704.346924,606.953796 
	C715.046326,603.594116 723.443359,597.310120 734.949585,598.523926 
z"/>
<path fill="#ffffff" opacity="1.000000" stroke="none" 
	d="
M1596.898071,775.183167 
	C1605.382568,749.182983 1621.098633,731.053040 1648.073364,721.927856 
	C1654.403809,720.566345 1659.281860,719.535217 1664.159790,718.504150 
	C1668.096802,718.593018 1672.033691,718.681885 1677.234009,719.228394 
	C1679.663208,719.669006 1680.829224,719.651917 1681.995117,719.634827 
	C1694.059692,720.600159 1704.832642,724.992432 1715.623291,732.711792 
	C1730.838867,744.329468 1738.733276,759.197083 1743.523682,776.687378 
	C1743.726196,778.250122 1743.980225,779.126526 1744.133667,780.797546 
	C1744.474365,787.059875 1744.915649,792.527527 1745.356934,797.995239 
	C1743.195435,800.728394 1746.958862,806.073730 1739.732178,807.289795 
	C1702.084595,807.325623 1665.979980,807.325623 1628.060425,807.325623 
	C1630.228149,813.412720 1631.940918,818.222534 1633.653809,823.032349 
	C1641.081299,840.955200 1658.117798,850.872253 1678.288574,849.117249 
	C1690.728027,848.034973 1701.291870,843.255005 1709.561279,833.734985 
	C1711.048462,832.022827 1712.627808,830.390625 1714.444092,828.417969 
	C1722.157837,832.849731 1729.487549,837.265625 1737.020020,841.303345 
	C1740.873169,843.368896 1740.381958,845.604431 1738.087402,849.090698 
	C1725.538208,863.338684 1711.251831,873.923889 1692.640747,876.891663 
	C1670.359619,880.444641 1648.716919,878.798889 1629.217041,866.112427 
	C1606.154297,851.107971 1596.060181,828.773682 1594.302734,802.081848 
	C1593.888672,795.792542 1593.852661,789.449219 1594.160767,783.156128 
	C1594.278931,780.744202 1595.845093,778.403137 1596.898071,775.183167 
M1633.097778,770.698608 
	C1631.984741,774.284790 1630.871704,777.870972 1629.613525,781.924683 
	C1657.117065,781.924683 1683.213135,781.924683 1709.396606,781.924683 
	C1706.283691,760.560852 1693.026611,747.324463 1673.570923,746.290955 
	C1655.466309,745.329163 1642.366943,753.585876 1633.097778,770.698608 
z"/>
<path fill="#ffffff" opacity="1.000000" stroke="none" 
	d="
M1772.724365,767.086670 
	C1778.676392,764.387817 1784.457031,762.451294 1790.258301,760.578247 
	C1795.139404,759.002258 1800.044312,757.500000 1805.627930,755.910339 
	C1806.565063,757.154785 1807.027466,758.453491 1807.029907,759.753174 
	C1807.097290,795.663269 1807.132202,831.573425 1807.106445,867.483582 
	C1807.105103,869.421265 1806.529785,871.358521 1806.124023,873.910034 
	C1795.141602,873.910034 1784.370117,873.910034 1772.561890,873.910034 
	C1772.561890,838.171204 1772.561890,803.023804 1772.724365,767.086670 
z"/>
<path fill="#ffffff" opacity="1.000000" stroke="none" 
	d="
M1572.407593,771.817749 
	C1572.912231,773.262817 1573.099121,774.098083 1573.662842,775.466919 
	C1576.198242,790.211182 1577.536621,804.423279 1574.019165,818.629456 
	C1566.526489,848.890930 1549.252441,869.925842 1517.847534,876.973022 
	C1503.644531,880.160156 1489.342773,878.359253 1475.587280,874.254517 
	C1466.466919,871.532776 1459.904053,864.407532 1452.209473,856.105164 
	C1452.209473,875.240906 1452.209473,892.691345 1452.208496,911.854858 
	C1452.321533,915.715820 1452.435547,917.863708 1452.549561,920.011658 
	C1452.303467,924.295410 1452.057373,928.579163 1451.774048,933.510986 
	C1440.950928,933.510986 1430.182495,933.510986 1418.256470,933.510986 
	C1418.256470,922.869690 1418.256470,912.356262 1418.075928,900.922302 
	C1418.024048,899.106689 1418.152588,898.211670 1418.286255,895.736816 
	C1418.156372,876.772217 1418.021362,859.387512 1417.886353,842.002747 
	C1417.992065,838.562561 1418.097778,835.122375 1418.197998,829.917358 
	C1418.068848,804.103821 1417.945312,780.055115 1417.821899,756.006470 
	C1417.947876,753.861328 1418.073853,751.716248 1418.191895,747.881042 
	C1418.073364,739.462708 1417.962646,732.734497 1417.851807,726.006226 
	C1418.299438,724.954163 1418.746948,723.902100 1420.505859,722.572693 
	C1428.544312,722.167114 1435.271484,722.038818 1441.998535,721.910645 
	C1444.600708,722.218384 1447.202881,722.526062 1450.532593,722.919739 
	C1450.934570,728.967712 1451.326294,734.859253 1451.792725,741.876221 
	C1453.844238,740.271545 1455.417358,739.341736 1456.614624,738.060669 
	C1483.865723,708.902344 1532.688843,714.869263 1556.739990,743.509705 
	C1563.663330,751.754211 1568.764160,760.982666 1572.407593,771.817749 
M1456.718994,821.794189 
	C1459.435669,825.947510 1461.673828,830.529663 1464.947876,834.183350 
	C1483.856445,855.283508 1517.976807,852.865967 1532.740234,829.030701 
	C1543.330933,811.932129 1545.483643,793.681213 1536.711548,774.852539 
	C1528.922729,758.134277 1515.606934,749.095947 1497.473999,748.965942 
	C1479.396484,748.836365 1465.778687,757.511169 1457.616943,774.022888 
	C1450.092285,789.245728 1450.160278,804.706909 1456.718994,821.794189 
z"/>
<path fill="#ffffff" opacity="1.000000" stroke="none" 
	d="
M1353.384888,722.528198 
	C1360.071777,722.052002 1366.143311,722.166870 1373.932129,722.290894 
	C1379.039917,722.354736 1382.430664,722.409363 1385.821289,722.463989 
	C1385.946777,723.843933 1386.072144,725.223877 1386.201660,728.099487 
	C1386.328369,732.395752 1386.451050,735.196411 1386.573730,737.997009 
	C1386.467529,742.090698 1386.361450,746.184326 1386.258423,752.062866 
	C1386.323608,773.897278 1386.385742,793.946838 1386.447754,813.996399 
	C1386.123535,816.739197 1385.799316,819.481995 1385.119873,823.552612 
	C1384.569214,826.590027 1384.373901,828.299622 1383.834229,830.642395 
	C1382.151978,835.399963 1380.814209,839.524353 1379.598389,843.653076 
	C1379.720459,843.657349 1379.692017,843.414795 1379.230957,843.679321 
	C1378.600708,844.610718 1378.431519,845.277649 1377.978760,846.173218 
	C1377.695068,846.401733 1377.746338,847.128601 1377.191162,847.559204 
	C1371.001831,853.942810 1365.933105,860.593750 1359.619507,865.707947 
	C1345.130249,877.445007 1327.674072,879.213135 1309.868652,878.067322 
	C1290.065063,876.792786 1272.148682,871.245300 1260.408203,853.548584 
	C1260.321167,853.683105 1260.586060,853.502808 1260.403198,852.882446 
	C1258.863525,851.370178 1257.506836,850.478149 1256.155518,848.838989 
	C1255.523682,846.298767 1254.955933,844.477234 1254.235718,842.718140 
	C1252.126953,837.567871 1249.957397,832.442505 1247.811768,827.307373 
	C1247.811768,827.307373 1247.955933,826.587891 1247.818848,826.247559 
	C1247.838989,822.283630 1248.129395,818.660217 1248.131958,815.036560 
	C1248.152222,786.054932 1248.111694,757.073242 1248.119629,728.091614 
	C1248.119995,726.498291 1248.387451,724.905151 1248.574463,722.824097 
	C1259.528687,722.824097 1270.020508,722.824097 1281.861450,722.824097 
	C1281.861450,726.592285 1281.864014,730.116089 1281.860962,733.639954 
	C1281.839966,757.624817 1281.677612,781.611023 1281.895142,805.593689 
	C1281.948975,811.525085 1282.588867,817.613647 1284.080933,823.337646 
	C1287.896362,837.973999 1299.088379,847.136536 1313.176392,848.022034 
	C1330.300781,849.098389 1342.317139,842.511841 1348.114014,827.353271 
	C1350.661987,820.690613 1351.833862,813.154419 1351.975708,805.982117 
	C1352.456909,781.673096 1352.178467,757.349304 1352.246704,733.031311 
	C1352.255981,729.726807 1352.587402,726.423279 1353.384888,722.528198 
z"/>
<path fill="url(#meGradient)" opacity="1.000000" stroke="none" 
	d="
M1842.315918,732.726929 
	C1834.642334,738.304810 1826.968628,743.138672 1818.551758,748.019775 
	C1815.928467,745.211731 1814.048218,742.356506 1811.970947,738.239624 
	C1810.670898,735.561768 1809.568115,734.145447 1808.465332,732.729126 
	C1807.876343,733.590332 1807.287231,734.451599 1806.698242,735.312866 
	C1806.757080,741.573975 1806.815918,747.835083 1805.906738,755.030640 
	C1800.044312,757.500000 1795.139404,759.002258 1790.258301,760.578247 
	C1784.457031,762.451294 1778.676392,764.387817 1772.886719,766.296875 
	C1772.697266,741.448364 1772.499634,716.599854 1772.323120,691.751221 
	C1772.271362,684.458740 1772.279053,677.165771 1772.182373,668.938782 
	C1782.273560,667.509705 1792.439087,666.867310 1802.613037,666.679382 
	C1804.135010,666.651245 1806.256836,668.419800 1807.154541,669.922546 
	C1818.884033,689.559448 1830.455688,709.291016 1841.998535,729.038696 
	C1842.453003,729.816223 1842.225586,730.992432 1842.315918,732.726929 
z"/>
<path fill="url(#meGradient)" opacity="1.000000" stroke="none" 
	d="
M1807.423340,735.539917 
	C1807.287231,734.451599 1807.876343,733.590332 1808.465332,732.729126 
	C1809.568115,734.145447 1810.670898,735.561768 1811.846436,737.578979 
	C1810.662231,737.375549 1809.405273,736.571228 1807.423340,735.539917 
z"/>
<g transform="translate(1950, 750) scale(0.65) translate(-1950, -750) translate(-30, 200)">
<path fill="#c084fc" opacity="1.000000" stroke="none" 
	d="
M2076.095215,719.364624 
	C2077.700439,719.178589 2079.305664,718.992615 2081.457520,718.538513 
	C2085.365723,718.448364 2088.727783,718.626343 2093.589844,719.275024 
	C2107.228760,719.357178 2117.529541,724.913086 2128.000000,729.919983 
	C2134.554199,736.491211 2141.108398,743.062378 2148.375000,750.741150 
	C2151.861328,757.897461 2154.635254,763.946167 2157.409424,769.994812 
	C2157.688232,771.712524 2157.967041,773.430237 2158.580566,776.465942 
	C2159.305908,779.198792 2159.697021,780.613647 2159.996826,782.944153 
	C2160.109863,791.258301 2160.314453,798.656677 2160.519043,806.055115 
	C2160.519043,806.055115 2159.987061,806.617004 2158.987305,806.993774 
	C2120.274170,807.370605 2082.560791,807.370605 2044.503784,807.370605 
	C2044.539795,814.517761 2046.058228,820.067505 2049.762207,824.969543 
	C2065.251953,855.649780 2101.499268,857.645874 2130.133789,828.618896 
	C2138.455811,833.335388 2147.019531,838.188904 2156.338867,843.470703 
	C2154.803711,846.152954 2153.867432,848.580383 2152.274658,850.448120 
	C2138.015137,867.169128 2120.230713,877.394226 2097.956787,878.058472 
	C2088.720215,878.333984 2079.321289,877.683533 2070.194824,876.218140 
	C2049.742920,872.934448 2034.606079,860.987000 2022.310425,844.926941 
	C2021.511597,843.883484 2020.414551,843.068420 2018.827759,841.838318 
	C2016.302246,836.785889 2014.404907,832.042297 2012.382690,825.864136 
	C2011.518066,820.291931 2010.778442,816.154358 2010.137817,811.097839 
	C2010.114868,802.787415 2009.993042,795.395996 2010.058838,787.164978 
	C2010.278687,782.916870 2010.311157,779.508301 2010.925171,775.862305 
	C2012.017334,774.509155 2012.527832,773.393433 2013.367798,771.679871 
	C2015.991577,765.537292 2018.286011,759.992554 2020.580444,754.447815 
	C2020.580444,754.447815 2020.394287,754.289001 2020.809570,754.161011 
	C2021.389038,753.372803 2021.553101,752.712708 2021.717285,752.052612 
	C2022.712769,750.590881 2023.708374,749.129211 2024.793213,746.992554 
	C2034.712646,735.183655 2046.027222,726.268372 2061.957764,722.042297 
	C2063.892822,721.325745 2064.561768,720.926697 2065.230469,720.527588 
	C2066.440430,720.398926 2067.650635,720.270325 2070.090820,720.047852 
	C2072.185303,719.854492 2073.049316,719.755005 2074.474121,719.695435 
	C2075.388184,719.611755 2075.741699,719.488220 2076.095215,719.364624 
M2046.300903,776.339539 
	C2046.178345,777.948364 2046.055786,779.557190 2045.936523,781.122192 
	C2056.388916,783.166138 2118.267090,782.876892 2124.966797,780.828979 
	C2122.482422,756.318298 2099.766846,741.480164 2076.044189,747.417603 
	C2061.104736,751.156738 2052.318359,761.131470 2046.300903,776.339539 
z"/>
<path fill="#c084fc" opacity="1.000000" stroke="none" 
	d="
M2266.017334,641.639648 
	C2267.948730,645.320740 2269.880371,649.001831 2272.065430,653.343506 
	C2286.649902,687.899902 2301.003418,721.786133 2315.269043,755.709351 
	C2316.391357,758.378601 2316.902100,761.304932 2316.581299,764.612549 
	C2308.873291,765.113342 2302.281006,765.113342 2295.597412,765.113342 
	C2291.338623,754.876526 2287.414062,745.443848 2283.637939,736.367004 
	C2271.862549,734.455872 2233.921143,734.695618 2226.344238,736.681641 
	C2222.665039,746.010071 2218.923340,755.496460 2215.496094,764.185791 
	C2206.918457,764.185791 2199.558350,764.185791 2191.801758,764.185791 
	C2195.738770,754.214478 2199.281982,745.240417 2202.825195,736.266418 
	C2203.550537,735.352295 2204.276123,734.438232 2205.459473,732.362061 
	C2207.324707,727.820801 2208.899170,724.500122 2210.104004,721.050232 
	C2212.775635,713.401245 2215.261719,705.687378 2217.822998,697.999878 
	C2218.507568,696.749268 2219.192139,695.498718 2220.348877,693.174438 
	C2222.176758,689.964539 2223.866211,687.967529 2224.826172,685.666199 
	C2227.815186,678.501160 2230.527588,671.220886 2233.347168,663.985229 
	C2233.652100,663.285645 2233.957275,662.586060 2234.815430,660.790833 
	C2237.425049,654.452942 2239.481689,649.210754 2241.538086,643.968506 
	C2245.791504,643.226807 2250.045166,642.485046 2255.963867,641.760742 
	C2260.425049,641.731934 2263.221191,641.685791 2266.017334,641.639648 
M2274.376221,712.368408 
	C2268.145264,696.674377 2262.708496,680.640137 2254.745605,663.534241 
	C2247.590332,682.186951 2241.239746,698.741882 2234.298584,716.836243 
	C2248.573730,716.836243 2261.049316,716.871033 2273.522217,716.707031 
	C2274.013672,716.700623 2274.479980,714.797974 2274.376221,712.368408 
z"/>
<path fill="#c084fc" opacity="1.000000" stroke="none" 
	d="
M2338.000244,764.832886 
	C2336.387939,764.470276 2334.775635,764.107666 2332.657471,763.631226 
	C2332.657471,723.521851 2332.657471,683.442383 2332.657471,641.894775 
	C2336.540283,641.894775 2340.050049,641.894836 2343.560059,641.894836 
	C2346.795410,641.894836 2350.030518,641.894775 2354.303223,641.894775 
	C2354.303223,682.690613 2354.303223,722.499451 2353.298340,763.322021 
	C2347.529297,764.501526 2342.764648,764.667236 2338.000244,764.832886 
z"/>
<path fill="#c084fc" opacity="1.000000" stroke="none" 
	d="
M1945.775146,670.047546 
	C1946.475220,669.269470 1947.175293,668.491455 1948.882690,667.146790 
	C1952.593750,666.363098 1955.297607,666.146057 1958.001343,665.928955 
	C1962.092896,666.055603 1966.184448,666.182312 1971.817627,666.306763 
	C1975.980469,666.895996 1978.601562,667.487427 1981.337646,669.003601 
	C1981.573120,684.639099 1981.693604,699.349854 1981.632324,714.977661 
	C1981.618286,726.594727 1981.786011,737.294800 1981.759521,748.912231 
	C1981.654419,759.910461 1981.743530,769.991272 1981.635010,780.800171 
	C1981.578247,783.016724 1981.719116,784.505249 1981.664795,786.914795 
	C1981.578247,804.590637 1981.686768,821.345398 1981.795288,838.100159 
	C1981.665771,844.786133 1981.536255,851.472046 1981.427734,859.907593 
	C1981.459839,865.757263 1981.470947,869.857361 1981.639648,873.883179 
	C1981.797363,873.808899 1981.630005,873.502930 1980.753784,873.765015 
	C1969.250000,874.317017 1958.622314,874.606873 1947.640381,874.556763 
	C1947.285889,874.216675 1946.361938,873.883057 1946.392822,872.953613 
	C1946.423584,826.610840 1946.423584,781.197449 1946.423584,735.784119 
	C1945.658691,735.545715 1944.893921,735.307373 1944.129028,735.069031 
	C1939.214111,743.880371 1934.299194,752.691711 1929.384277,761.503052 
	C1929.384155,761.502991 1929.571899,761.794739 1929.159912,761.883484 
	C1928.453003,762.675842 1928.157959,763.379456 1927.862915,764.083069 
	C1917.946289,780.399109 1907.757324,796.557251 1898.183472,813.072021 
	C1886.713257,832.857971 1892.275513,828.182678 1869.930298,828.732239 
	C1865.780151,828.834229 1863.245117,826.958191 1861.227905,823.482910 
	C1851.829102,807.289978 1842.257202,791.197449 1832.817749,775.027771 
	C1827.866821,766.546448 1823.060791,757.980408 1818.741943,748.712646 
	C1826.968628,743.138672 1834.642334,738.304810 1842.316040,733.470947 
	C1844.495605,735.745300 1847.178101,737.715210 1848.770142,740.345276 
	C1856.875488,753.735718 1864.686890,767.303955 1872.632202,780.791687 
	C1873.953003,783.033630 1875.427002,785.185242 1877.590942,788.567566 
	C1896.252075,756.382812 1914.409302,725.067139 1932.835693,693.090027 
	C1933.564453,691.694824 1934.024170,690.960999 1935.054688,689.332153 
	C1937.364502,685.234863 1939.103638,682.032593 1940.842896,678.830322 
	C1940.842896,678.830322 1940.880249,678.709229 1941.324463,678.284668 
	C1942.656738,675.997498 1943.544922,674.134888 1944.432983,672.272217 
	C1944.432983,672.272217 1944.239380,672.198364 1944.673828,672.066650 
	C1945.330566,671.305725 1945.552856,670.676636 1945.775146,670.047546 
z"/>
</g>
</svg>
